<svg viewBox="0 0 27 26" fill="currentcolor" xmlns="http://www.w3.org/2000/svg">
	<path d="M8.47253 20.4219C6.94111 20.4219 5.69971 21.6707 5.69971 23.211C5.69971 24.7513 6.94117 26 8.47253 26C10.004 26 11.2454 24.7513 11.2454 23.211C11.2454 21.6707 10.004 20.4219 8.47253 20.4219ZM8.47253 24.7605C7.62176 24.7605 6.93209 24.0668 6.93209 23.211C6.93209 22.3553 7.62176 21.6616 8.47253 21.6616C9.32331 21.6616 10.013 22.3553 10.013 23.211C10.013 24.0668 9.32331 24.7605 8.47253 24.7605Z"></path>
	<path d="M20.1801 20.4219C18.6486 20.4219 17.4072 21.6707 17.4072 23.211C17.4072 24.7513 18.6487 26 20.1801 26C21.7114 26 22.9529 24.7513 22.9529 23.211C22.9529 21.6707 21.7115 20.4219 20.1801 20.4219ZM20.1801 24.7605C19.3293 24.7605 18.6396 24.0668 18.6396 23.211C18.6396 22.3553 19.3293 21.6616 20.1801 21.6616C21.0308 21.6616 21.7205 22.3553 21.7205 23.211C21.7206 24.0668 21.0308 24.7605 20.1801 24.7605Z"></path>
	<path d="M26.4343 4.15262C26.306 4.01162 26.1304 3.92336 25.9413 3.90468L5.88457 3.62578L5.33001 1.92135C4.93933 0.781956 3.87856 0.0127528 2.6804 0H0.616185C0.275865 0 0 0.277478 0 0.619787C0 0.962097 0.275865 1.23957 0.616185 1.23957H2.6804C3.35036 1.25446 3.94031 1.68717 4.15926 2.32422L8.07203 14.1931L7.76397 14.9059C7.42035 15.7971 7.52354 16.8003 8.04125 17.6019C8.554 18.3893 9.41662 18.8752 10.352 18.9035H22.3368C22.6771 18.9035 22.9529 18.626 22.9529 18.2837C22.9529 17.9414 22.6771 17.6639 22.3368 17.6639H10.3519C9.8237 17.6506 9.33748 17.3711 9.0579 16.9202C8.78145 16.4747 8.72466 15.9259 8.90387 15.4326L9.15037 14.8748L22.121 13.5113C23.5458 13.3535 24.7178 12.3112 25.0479 10.9082L26.5268 4.67934C26.5934 4.49997 26.5581 4.29824 26.4343 4.15262ZM23.8463 10.6293C23.6463 11.5325 22.884 12.1986 21.967 12.2718L9.15037 13.6043L6.2851 4.86535L25.1711 5.14425L23.8463 10.6293Z"></path>
</svg>